<mxfile host="drawio-plugin" modified="2025-04-02T13:05:34.513Z" agent="Mozilla/5.0 (Macintosh; Intel Mac OS X 10_15_7) AppleWebKit/537.36 (KHTML, like Gecko) Chrome/122.0.0.0 Safari/537.36" version="22.1.22" etag="f5cOnoQsG9SjfAvLKZ0v" type="embed">
  <diagram id="ia6Kg8oNBusjdN2G6VWK" name="Page-1">
    <mxGraphModel dx="1307" dy="547" grid="1" gridSize="10" guides="1" tooltips="1" connect="1" arrows="1" fold="1" page="1" pageScale="1" pageWidth="850" pageHeight="1100" math="0" shadow="0">
      <root>
        <mxCell id="0" />
        <mxCell id="1" parent="0" />
        <mxCell id="2" value="Transformation" style="shape=process;whiteSpace=wrap;html=1;backgroundOutline=1;" vertex="1" parent="1">
          <mxGeometry x="150" y="230" width="120" height="60" as="geometry" />
        </mxCell>
        <mxCell id="3" value="Actor" style="shape=umlActor;verticalLabelPosition=bottom;verticalAlign=top;html=1;outlineConnect=0;" vertex="1" parent="1">
          <mxGeometry x="-50" y="240" width="30" height="60" as="geometry" />
        </mxCell>
        <mxCell id="4" value="" style="endArrow=classic;html=1;rounded=0;" edge="1" parent="1">
          <mxGeometry relative="1" as="geometry">
            <mxPoint x="-10" y="250" as="sourcePoint" />
            <mxPoint x="150" y="250" as="targetPoint" />
          </mxGeometry>
        </mxCell>
        <mxCell id="5" value="External info" style="edgeLabel;resizable=0;html=1;align=center;verticalAlign=middle;" connectable="0" vertex="1" parent="4">
          <mxGeometry relative="1" as="geometry" />
        </mxCell>
        <mxCell id="6" value="Inputs" style="edgeLabel;resizable=0;html=1;align=left;verticalAlign=bottom;" connectable="0" vertex="1" parent="4">
          <mxGeometry x="-1" relative="1" as="geometry" />
        </mxCell>
        <mxCell id="7" value="Target" style="edgeLabel;resizable=0;html=1;align=right;verticalAlign=bottom;" connectable="0" vertex="1" parent="4">
          <mxGeometry x="1" relative="1" as="geometry" />
        </mxCell>
        <mxCell id="9" value="" style="endArrow=classic;html=1;rounded=0;" edge="1" parent="1">
          <mxGeometry relative="1" as="geometry">
            <mxPoint x="270" y="250" as="sourcePoint" />
            <mxPoint x="430" y="250" as="targetPoint" />
          </mxGeometry>
        </mxCell>
        <mxCell id="10" value="+Added Value" style="edgeLabel;resizable=0;html=1;align=center;verticalAlign=middle;" connectable="0" vertex="1" parent="9">
          <mxGeometry relative="1" as="geometry" />
        </mxCell>
        <mxCell id="11" value="Input" style="edgeLabel;resizable=0;html=1;align=left;verticalAlign=bottom;" connectable="0" vertex="1" parent="9">
          <mxGeometry x="-1" relative="1" as="geometry" />
        </mxCell>
        <mxCell id="12" value="Outputs" style="edgeLabel;resizable=0;html=1;align=right;verticalAlign=bottom;" connectable="0" vertex="1" parent="9">
          <mxGeometry x="1" relative="1" as="geometry" />
        </mxCell>
      </root>
    </mxGraphModel>
  </diagram>
</mxfile>
